<svg id="SvgjsSvg1006" width="1019" height="112" xmlns="http://www.w3.org/2000/svg" version="1.1" xmlns:xlink="http://www.w3.org/1999/xlink" xmlns:svgjs="http://svgjs.com/svgjs"><defs id="SvgjsDefs1007"><marker id="SvgjsMarker1022" markerWidth="16" markerHeight="12" refX="16" refY="6" viewBox="0 0 16 12" orient="auto" markerUnits="userSpaceOnUse" stroke-dasharray="0,0"><path id="SvgjsPath1023" d="M0,2 L14,6 L0,11 L0,2" fill="#323232" stroke="#323232" stroke-width="2"></path></marker><marker id="SvgjsMarker1036" markerWidth="16" markerHeight="12" refX="16" refY="6" viewBox="0 0 16 12" orient="auto" markerUnits="userSpaceOnUse" stroke-dasharray="0,0"><path id="SvgjsPath1037" d="M0,2 L14,6 L0,11 L0,2" fill="#323232" stroke="#323232" stroke-width="2"></path></marker><marker id="SvgjsMarker1050" markerWidth="16" markerHeight="12" refX="16" refY="6" viewBox="0 0 16 12" orient="auto" markerUnits="userSpaceOnUse" stroke-dasharray="0,0"><path id="SvgjsPath1051" d="M0,2 L14,6 L0,11 L0,2" fill="#323232" stroke="#323232" stroke-width="2"></path></marker></defs><g id="SvgjsG1008" transform="translate(25,28.5)"><path id="SvgjsPath1009" d="M 18.333333333333332 0L 113.66666666666667 0C 138.11111111111111 0 138.11111111111111 55 113.66666666666667 55L 18.333333333333332 55C -6.111111111111111 55 -6.111111111111111 0 18.333333333333332 0Z" stroke="rgba(50,50,50,1)" stroke-width="2" fill-opacity="1" fill="#ffffff"></path><g id="SvgjsG1010"><text id="SvgjsText1011" font-family="微软雅黑" text-anchor="middle" font-size="13px" width="112px" fill="#323232" font-weight="400" align="middle" anchor="middle" family="微软雅黑" size="13px" weight="400" font-style="" opacity="1" y="17.55" transform="rotate(0)"><tspan id="SvgjsTspan1012" dy="16" x="66"><tspan id="SvgjsTspan1013" style="text-decoration:;">KafkaProducer</tspan></tspan></text></g></g><g id="SvgjsG1014" transform="translate(274,25)"><path id="SvgjsPath1015" d="M 0 0L 184 0L 184 62L 0 62L 0 0ZM 20 0L 20 62M 164 0L 164 62" stroke="rgba(50,50,50,1)" stroke-width="2" fill-opacity="1" fill="#ffffff"></path><g id="SvgjsG1016"><text id="SvgjsText1017" font-family="微软雅黑" text-anchor="middle" font-size="13px" width="144px" fill="#323232" font-weight="400" align="middle" anchor="middle" family="微软雅黑" size="13px" weight="400" font-style="" opacity="1" y="21.05" transform="rotate(0)"><tspan id="SvgjsTspan1018" dy="16" x="92"><tspan id="SvgjsTspan1019" style="text-decoration:;">RecordAccumulator</tspan></tspan></text></g></g><g id="SvgjsG1020"><path id="SvgjsPath1021" d="M157 56L215.5 56L215.5 56L274 56" stroke="#323232" stroke-width="2" fill="none" marker-end="url(#SvgjsMarker1022)"></path><rect id="SvgjsRect1024" width="60" height="16" x="185.5" y="48" fill="#ffffff"></rect><text id="SvgjsText1025" font-family="微软雅黑" text-anchor="middle" font-size="13px" width="60px" fill="#323232" font-weight="400" align="top" anchor="middle" family="微软雅黑" size="13px" weight="400" font-style="" opacity="1" y="46.05" transform="rotate(0)"><tspan id="SvgjsTspan1026" dy="16" x="215.5"><tspan id="SvgjsTspan1027" style="text-decoration:;">doSend()</tspan></tspan></text></g><g id="SvgjsG1028" transform="translate(556,25)"><path id="SvgjsPath1029" d="M 0 0L 125 0L 125 62L 0 62L 0 0ZM 20 0L 20 62M 105 0L 105 62" stroke="rgba(50,50,50,1)" stroke-width="2" fill-opacity="1" fill="#ffffff"></path><g id="SvgjsG1030"><text id="SvgjsText1031" font-family="微软雅黑" text-anchor="middle" font-size="13px" width="85px" fill="#323232" font-weight="400" align="middle" anchor="middle" family="微软雅黑" size="13px" weight="400" font-style="" opacity="1" y="21.05" transform="rotate(0)"><tspan id="SvgjsTspan1032" dy="16" x="62.5"><tspan id="SvgjsTspan1033" style="text-decoration:;">Sender</tspan></tspan></text></g></g><g id="SvgjsG1034"><path id="SvgjsPath1035" d="M458 56L507 56L507 56L556 56" stroke="#323232" stroke-width="2" fill="none" marker-end="url(#SvgjsMarker1036)"></path><rect id="SvgjsRect1038" width="45" height="16" x="484.5" y="48" fill="#ffffff"></rect><text id="SvgjsText1039" font-family="微软雅黑" text-anchor="middle" font-size="13px" width="45px" fill="#323232" font-weight="400" align="top" anchor="middle" family="微软雅黑" size="13px" weight="400" font-style="" opacity="1" y="46.05" transform="rotate(0)"><tspan id="SvgjsTspan1040" dy="16" x="507"><tspan id="SvgjsTspan1041" style="text-decoration:;">drain()</tspan></tspan></text></g><g id="SvgjsG1042" transform="translate(894,31)"><path id="SvgjsPath1043" d="M 16.666666666666668 0L 83.33333333333333 0C 105.55555555555556 0 105.55555555555556 50 83.33333333333333 50L 16.666666666666668 50C -5.555555555555556 50 -5.555555555555556 0 16.666666666666668 0Z" stroke="rgba(50,50,50,1)" stroke-width="2" fill-opacity="1" fill="#ffffff"></path><g id="SvgjsG1044"><text id="SvgjsText1045" font-family="微软雅黑" text-anchor="middle" font-size="13px" width="80px" fill="#323232" font-weight="400" align="middle" anchor="middle" family="微软雅黑" size="13px" weight="400" font-style="" opacity="1" y="15.05" transform="rotate(0)"><tspan id="SvgjsTspan1046" dy="16" x="50"><tspan id="SvgjsTspan1047" style="text-decoration:;">Broker</tspan></tspan></text></g></g><g id="SvgjsG1048"><path id="SvgjsPath1049" d="M681 56L787.5 56L787.5 56L894 56" stroke="#323232" stroke-width="2" fill="none" marker-end="url(#SvgjsMarker1050)"></path><rect id="SvgjsRect1052" width="156" height="16" x="709.5" y="48" fill="#ffffff"></rect><text id="SvgjsText1053" font-family="微软雅黑" text-anchor="middle" font-size="13px" width="156px" fill="#323232" font-weight="400" align="top" anchor="middle" family="微软雅黑" size="13px" weight="400" font-style="" opacity="1" y="46.05" transform="rotate(0)"><tspan id="SvgjsTspan1054" dy="16" x="787.5"><tspan id="SvgjsTspan1055" style="text-decoration:;">sendProduceRequests()</tspan></tspan></text></g></svg>